<svg t="1618908291341" class="icon" viewBox="0 0 1024 1024" version="1.1" xmlns="http://www.w3.org/2000/svg" p-id="908" width="200" height="200"><path d="M512.828702 1022.066361A414.351227 414.351227 0 0 1 98.477475 607.715134V300.818991a41.435123 41.435123 0 0 1 41.435123-41.435123h744.174804a41.435123 41.435123 0 0 1 41.435123 41.435123V607.715134A414.351227 414.351227 0 0 1 512.828702 1022.066361zM181.347721 342.254114V607.715134a331.480982 331.480982 0 0 0 661.304558 0v-265.46102zM856.463987 189.220394H167.536013a41.435123 41.435123 0 0 1 0-82.870246h688.927974a41.435123 41.435123 0 1 1 0 82.870246zM607.853251 82.870245H416.146749a41.435123 41.435123 0 0 1 0-82.870245h191.706502a41.435123 41.435123 0 0 1 0 82.870245z" fill="#060404" p-id="909"></path><path d="M413.384408 806.051254a41.435123 41.435123 0 0 1-41.435123-41.435122v-274.576747a41.435123 41.435123 0 0 1 82.870246 0v274.576747a41.435123 41.435123 0 0 1-41.435123 41.435122z" fill="#060404" p-id="910"></path><path d="M610.339358 806.051254a41.435123 41.435123 0 0 1-41.435123-41.435122v-274.576747a41.435123 41.435123 0 1 1 82.870246 0v274.576747a41.435123 41.435123 0 0 1-41.435123 41.435122z" fill="#2DAF62" p-id="911"></path></svg>